<mxfile host="Electron" agent="Mozilla/5.0 (Windows NT 10.0; Win64; x64) AppleWebKit/537.36 (KHTML, like Gecko) draw.io/28.1.2 Chrome/138.0.7204.243 Electron/37.4.0 Safari/537.36" version="28.1.2">
  <diagram name="Page-1" id="G1aTi6ff4S9gmLR576CZ">
    <mxGraphModel dx="960" dy="593" grid="1" gridSize="10" guides="1" tooltips="1" connect="1" arrows="1" fold="1" page="1" pageScale="1" pageWidth="850" pageHeight="1100" math="0" shadow="0">
      <root>
        <mxCell id="0" />
        <mxCell id="1" parent="0" />
        <mxCell id="IYXOc24vDLp9JBJJ1bIa-1" value="Receptionist&lt;div&gt;&lt;br&gt;&lt;/div&gt;" style="shape=umlActor;verticalLabelPosition=bottom;verticalAlign=top;html=1;outlineConnect=0;labelBackgroundColor=none;" vertex="1" parent="1">
          <mxGeometry x="60" y="180" width="30" height="60" as="geometry" />
        </mxCell>
        <mxCell id="IYXOc24vDLp9JBJJ1bIa-4" value="schedules&lt;br/&gt;patient appointments and hospital admissions" style="ellipse;whiteSpace=wrap;html=1;labelBackgroundColor=none;" vertex="1" parent="1">
          <mxGeometry x="220" y="70" width="120" height="80" as="geometry" />
        </mxCell>
        <mxCell id="IYXOc24vDLp9JBJJ1bIa-5" value="collects patient information during the scheduling&lt;br/&gt;of appointments and admissions" style="ellipse;whiteSpace=wrap;html=1;labelBackgroundColor=none;" vertex="1" parent="1">
          <mxGeometry x="410" y="70" width="120" height="80" as="geometry" />
        </mxCell>
        <mxCell id="IYXOc24vDLp9JBJJ1bIa-6" value="&amp;lt;&amp;lt;extend&amp;gt;&amp;gt;" style="html=1;verticalAlign=bottom;labelBackgroundColor=none;endArrow=open;endFill=0;dashed=1;rounded=0;entryX=1;entryY=0.5;entryDx=0;entryDy=0;exitX=0;exitY=0.638;exitDx=0;exitDy=0;exitPerimeter=0;" edge="1" parent="1" source="IYXOc24vDLp9JBJJ1bIa-5" target="IYXOc24vDLp9JBJJ1bIa-4">
          <mxGeometry width="160" relative="1" as="geometry">
            <mxPoint x="350" y="170" as="sourcePoint" />
            <mxPoint x="420" y="170" as="targetPoint" />
            <Array as="points" />
          </mxGeometry>
        </mxCell>
        <mxCell id="IYXOc24vDLp9JBJJ1bIa-7" value="collects patient information&amp;nbsp;upon arrival at the hospital." style="ellipse;whiteSpace=wrap;html=1;" vertex="1" parent="1">
          <mxGeometry x="230" y="180" width="120" height="80" as="geometry" />
        </mxCell>
        <mxCell id="IYXOc24vDLp9JBJJ1bIa-8" value="" style="endArrow=none;html=1;rounded=0;entryX=-0.017;entryY=0.638;entryDx=0;entryDy=0;entryPerimeter=0;" edge="1" parent="1" target="IYXOc24vDLp9JBJJ1bIa-4">
          <mxGeometry width="50" height="50" relative="1" as="geometry">
            <mxPoint x="90" y="210" as="sourcePoint" />
            <mxPoint x="180" y="140" as="targetPoint" />
          </mxGeometry>
        </mxCell>
        <mxCell id="IYXOc24vDLp9JBJJ1bIa-9" value="" style="endArrow=none;html=1;rounded=0;entryX=0;entryY=0.625;entryDx=0;entryDy=0;entryPerimeter=0;" edge="1" parent="1" target="IYXOc24vDLp9JBJJ1bIa-7">
          <mxGeometry width="50" height="50" relative="1" as="geometry">
            <mxPoint x="100" y="220" as="sourcePoint" />
            <mxPoint x="200" y="190" as="targetPoint" />
            <Array as="points" />
          </mxGeometry>
        </mxCell>
        <mxCell id="IYXOc24vDLp9JBJJ1bIa-10" value="Complete registration before admission" style="ellipse;whiteSpace=wrap;html=1;" vertex="1" parent="1">
          <mxGeometry x="210" y="310" width="120" height="80" as="geometry" />
        </mxCell>
        <mxCell id="IYXOc24vDLp9JBJJ1bIa-11" value="Outpatient admission" style="ellipse;whiteSpace=wrap;html=1;" vertex="1" parent="1">
          <mxGeometry x="370" y="260" width="120" height="80" as="geometry" />
        </mxCell>
        <mxCell id="IYXOc24vDLp9JBJJ1bIa-12" value="Inpatient admission" style="ellipse;whiteSpace=wrap;html=1;" vertex="1" parent="1">
          <mxGeometry x="380" y="360" width="120" height="80" as="geometry" />
        </mxCell>
        <mxCell id="IYXOc24vDLp9JBJJ1bIa-20" value="Assign a bed" style="ellipse;whiteSpace=wrap;html=1;" vertex="1" parent="1">
          <mxGeometry x="550" y="330" width="120" height="80" as="geometry" />
        </mxCell>
        <mxCell id="IYXOc24vDLp9JBJJ1bIa-21" value="File insurance claims and medical reports upon request" style="ellipse;whiteSpace=wrap;html=1;" vertex="1" parent="1">
          <mxGeometry x="550" y="430" width="120" height="80" as="geometry" />
        </mxCell>
        <mxCell id="IYXOc24vDLp9JBJJ1bIa-22" value="&amp;lt;&amp;lt;include&amp;gt;&amp;gt;" style="html=1;verticalAlign=bottom;labelBackgroundColor=none;endArrow=open;endFill=0;dashed=1;rounded=0;entryX=0;entryY=0.5;entryDx=0;entryDy=0;exitX=0.992;exitY=0.313;exitDx=0;exitDy=0;exitPerimeter=0;" edge="1" parent="1" source="IYXOc24vDLp9JBJJ1bIa-12" target="IYXOc24vDLp9JBJJ1bIa-20">
          <mxGeometry width="160" relative="1" as="geometry">
            <mxPoint x="450" y="360" as="sourcePoint" />
            <mxPoint x="610" y="360" as="targetPoint" />
          </mxGeometry>
        </mxCell>
        <mxCell id="IYXOc24vDLp9JBJJ1bIa-24" value="&amp;lt;&amp;lt;extend&amp;gt;&amp;gt;" style="html=1;verticalAlign=bottom;labelBackgroundColor=none;endArrow=open;endFill=0;dashed=1;rounded=0;entryX=1;entryY=1;entryDx=0;entryDy=0;exitX=0;exitY=0.5;exitDx=0;exitDy=0;" edge="1" parent="1" source="IYXOc24vDLp9JBJJ1bIa-21" target="IYXOc24vDLp9JBJJ1bIa-12">
          <mxGeometry width="160" relative="1" as="geometry">
            <mxPoint x="400" y="469.5" as="sourcePoint" />
            <mxPoint x="560" y="469.5" as="targetPoint" />
          </mxGeometry>
        </mxCell>
        <mxCell id="IYXOc24vDLp9JBJJ1bIa-26" value="" style="endArrow=none;html=1;rounded=0;entryX=0;entryY=0.5;entryDx=0;entryDy=0;" edge="1" parent="1" target="IYXOc24vDLp9JBJJ1bIa-10">
          <mxGeometry width="50" height="50" relative="1" as="geometry">
            <mxPoint x="90" y="220" as="sourcePoint" />
            <mxPoint x="180" y="290" as="targetPoint" />
          </mxGeometry>
        </mxCell>
        <mxCell id="IYXOc24vDLp9JBJJ1bIa-27" value="" style="edgeStyle=none;html=1;endSize=12;endArrow=block;endFill=0;rounded=0;exitX=0;exitY=0.5;exitDx=0;exitDy=0;" edge="1" parent="1" source="IYXOc24vDLp9JBJJ1bIa-11" target="IYXOc24vDLp9JBJJ1bIa-10">
          <mxGeometry width="160" relative="1" as="geometry">
            <mxPoint x="280" y="210" as="sourcePoint" />
            <mxPoint x="440" y="210" as="targetPoint" />
          </mxGeometry>
        </mxCell>
        <mxCell id="IYXOc24vDLp9JBJJ1bIa-28" value="" style="edgeStyle=none;html=1;endSize=12;endArrow=block;endFill=0;rounded=0;exitX=0;exitY=0.625;exitDx=0;exitDy=0;exitPerimeter=0;" edge="1" parent="1" source="IYXOc24vDLp9JBJJ1bIa-12" target="IYXOc24vDLp9JBJJ1bIa-10">
          <mxGeometry width="160" relative="1" as="geometry">
            <mxPoint x="230" y="429" as="sourcePoint" />
            <mxPoint x="390" y="429" as="targetPoint" />
          </mxGeometry>
        </mxCell>
      </root>
    </mxGraphModel>
  </diagram>
</mxfile>
